# Blender v2.78 (sub 0) OBJ File: ''
# www.blender.org
mtllib gem2.mtl
o Sphere
v 0.000000 0.866025 -0.500000
v 0.000000 0.500000 -0.866025
v 0.000000 -0.000000 -1.000000
v 0.000000 -0.500000 -0.866025
v 0.000000 -0.866025 -0.500000
v -0.000000 1.000000 -0.000000
v 0.433013 0.866025 -0.250000
v 0.750000 0.500000 -0.433013
v 0.866025 -0.000000 -0.500000
v 0.750000 -0.500000 -0.433013
v 0.433013 -0.866025 -0.250000
v 0.433013 0.866025 0.250000
v 0.750000 0.500000 0.433013
v 0.866025 -0.000000 0.500000
v 0.750000 -0.500000 0.433013
v 0.433013 -0.866025 0.250000
v -0.000000 0.866025 0.500000
v -0.000000 0.500000 0.866025
v -0.000000 -0.000000 1.000000
v -0.000000 -0.500000 0.866025
v -0.000000 -0.866025 0.500000
v 0.000000 -1.000000 -0.000000
v -0.433013 0.866025 0.250000
v -0.750000 0.500000 0.433012
v -0.866026 -0.000000 0.500000
v -0.750000 -0.500000 0.433012
v -0.433013 -0.866025 0.250000
v -0.433013 0.866025 -0.250000
v -0.750000 0.500000 -0.433013
v -0.866025 -0.000000 -0.500000
v -0.750000 -0.500000 -0.433013
v -0.433013 -0.866025 -0.250000
vt 0.6739 0.5441
vt 0.7048 0.7009
vt 0.6115 0.6625
vt 0.9872 0.8901
vt 0.5215 0.7505
vt 0.7720 0.8451
vt 0.1472 0.6141
vt 0.2979 0.6932
vt 0.1074 0.7680
vt 1.1074 0.7680
vt 1.3995 0.7643
vt 0.1739 0.4559
vt 0.2298 0.5803
vt 0.3432 0.4214
vt 0.5925 0.5058
vt 0.4285 0.4350
vt 0.3995 0.7643
vt 0.2576 0.4291
vt 0.5114 0.4660
vt 0.6472 0.3859
vt 0.4872 0.1099
vt 0.2048 0.2991
vt 0.6074 0.2320
vt 0.2720 0.1549
vt 0.7298 0.4197
vt 1.2720 0.1549
vt 0.8995 0.2357
vt 0.1115 0.3375
vt 0.7979 0.3068
vt 0.0215 0.2495
vt 0.8432 0.5786
vt 0.7576 0.5709
vt 1.0215 0.2495
vt 0.9285 0.5650
vt 0.0925 0.4942
vt 0.0114 0.5340
vt 1.0114 0.5340
vt 1.2979 0.6932
vn 0.1478 -0.9553 -0.2560
vn 0.4871 -0.2260 -0.8436
vn 0.3780 0.6547 -0.6547
vn 0.3780 -0.6547 -0.6547
vn 0.4871 0.2260 -0.8436
vn 0.1478 0.9553 -0.2560
vn 0.7559 0.6547 0.0000
vn 0.7559 -0.6547 0.0000
vn 0.9741 0.2260 0.0000
vn 0.2956 0.9553 0.0000
vn 0.2956 -0.9553 0.0000
vn 0.9741 -0.2260 0.0000
vn 0.3780 -0.6547 0.6547
vn 0.4871 0.2260 0.8436
vn 0.1478 0.9553 0.2560
vn 0.1478 -0.9553 0.2560
vn 0.4871 -0.2260 0.8436
vn 0.3780 0.6547 0.6547
vn -0.3780 -0.6547 0.6547
vn -0.4871 0.2260 0.8436
vn -0.1478 0.9553 0.2560
vn -0.1478 -0.9553 0.2560
vn -0.4871 -0.2260 0.8436
vn -0.3780 0.6547 0.6547
vn -0.7559 -0.6547 -0.0000
vn -0.9741 0.2260 -0.0000
vn -0.2956 0.9553 0.0000
vn -0.2956 -0.9553 -0.0000
vn -0.9741 -0.2260 -0.0000
vn -0.7559 0.6547 -0.0000
vn -0.3780 -0.6547 -0.6547
vn -0.4871 0.2260 -0.8436
vn -0.1478 0.9553 -0.2560
vn -0.1478 -0.9553 -0.2560
vn -0.4871 -0.2260 -0.8436
vn -0.3780 0.6547 -0.6547
usemtl None
s off
f 22/1/1 5/2/1 11/3/1
f 3/4/2 10/5/2 4/6/2
f 1/7/3 8/8/3 2/9/3
f 4/6/4 11/3/4 5/2/4
f 2/10/5 9/11/5 3/4/5
f 1/7/6 6/12/6 7/13/6
f 7/13/7 13/14/7 8/8/7
f 10/5/8 16/15/8 11/3/8
f 8/8/9 14/16/9 9/17/9
f 7/13/10 6/12/10 12/18/10
f 22/1/11 11/3/11 16/15/11
f 9/17/12 15/19/12 10/5/12
f 15/19/13 21/20/13 16/15/13
f 13/14/14 19/21/14 14/16/14
f 12/18/15 6/12/15 17/22/15
f 22/1/16 16/15/16 21/20/16
f 14/16/17 20/23/17 15/19/17
f 12/18/18 18/24/18 13/14/18
f 20/23/19 27/25/19 21/20/19
f 18/26/20 25/27/20 19/21/20
f 17/22/21 6/12/21 23/28/21
f 22/1/22 21/20/22 27/25/22
f 19/21/23 26/29/23 20/23/23
f 17/22/24 24/30/24 18/24/24
f 27/25/25 31/31/25 32/32/25
f 24/33/26 30/34/26 25/27/26
f 23/28/27 6/12/27 28/35/27
f 22/1/28 27/25/28 32/32/28
f 25/27/29 31/31/29 26/29/29
f 23/28/30 29/36/30 24/30/30
f 31/31/31 5/2/31 32/32/31
f 29/37/32 3/4/32 30/34/32
f 28/35/33 6/12/33 1/7/33
f 22/1/34 32/32/34 5/2/34
f 31/31/35 3/4/35 4/6/35
f 28/35/36 2/9/36 29/36/36
f 3/4/2 9/11/2 10/5/2
f 1/7/3 7/13/3 8/8/3
f 4/6/4 10/5/4 11/3/4
f 2/10/5 8/38/5 9/11/5
f 7/13/7 12/18/7 13/14/7
f 10/5/8 15/19/8 16/15/8
f 8/8/9 13/14/9 14/16/9
f 9/17/12 14/16/12 15/19/12
f 15/19/13 20/23/13 21/20/13
f 13/14/14 18/24/14 19/21/14
f 14/16/17 19/21/17 20/23/17
f 12/18/18 17/22/18 18/24/18
f 20/23/19 26/29/19 27/25/19
f 18/26/20 24/33/20 25/27/20
f 19/21/23 25/27/23 26/29/23
f 17/22/24 23/28/24 24/30/24
f 27/25/25 26/29/25 31/31/25
f 24/33/26 29/37/26 30/34/26
f 25/27/29 30/34/29 31/31/29
f 23/28/30 28/35/30 29/36/30
f 31/31/31 4/6/31 5/2/31
f 29/37/32 2/10/32 3/4/32
f 31/31/35 30/34/35 3/4/35
f 28/35/36 1/7/36 2/9/36
